<mxfile host="app.diagrams.net" modified="2024-03-05T02:51:42.105Z" agent="Mozilla/5.0 (Windows NT 10.0; Win64; x64) AppleWebKit/537.36 (KHTML, like Gecko) Chrome/122.0.0.0 Safari/537.36" etag="afb8eWAis067RlGCjgKY" version="24.0.0" type="github">
  <diagram name="Page-1" id="2YBvvXClWsGukQMizWep">
    <mxGraphModel dx="1321" dy="673" grid="1" gridSize="10" guides="1" tooltips="1" connect="1" arrows="1" fold="1" page="1" pageScale="1" pageWidth="850" pageHeight="1100" math="0" shadow="0">
      <root>
        <mxCell id="0" />
        <mxCell id="1" parent="0" />
        <mxCell id="aM9ryv3xv72pqoxQDRHE-1" value=":Cliente" style="shape=umlLifeline;perimeter=lifelinePerimeter;whiteSpace=wrap;html=1;container=0;dropTarget=0;collapsible=0;recursiveResize=0;outlineConnect=0;portConstraint=eastwest;newEdgeStyle={&quot;edgeStyle&quot;:&quot;elbowEdgeStyle&quot;,&quot;elbow&quot;:&quot;vertical&quot;,&quot;curved&quot;:0,&quot;rounded&quot;:0};" parent="1" vertex="1">
          <mxGeometry x="30" y="110" width="100" height="430" as="geometry" />
        </mxCell>
        <mxCell id="aM9ryv3xv72pqoxQDRHE-2" value="" style="html=1;points=[];perimeter=orthogonalPerimeter;outlineConnect=0;targetShapes=umlLifeline;portConstraint=eastwest;newEdgeStyle={&quot;edgeStyle&quot;:&quot;elbowEdgeStyle&quot;,&quot;elbow&quot;:&quot;vertical&quot;,&quot;curved&quot;:0,&quot;rounded&quot;:0};" parent="aM9ryv3xv72pqoxQDRHE-1" vertex="1">
          <mxGeometry x="45" y="70" width="10" height="190" as="geometry" />
        </mxCell>
        <mxCell id="aM9ryv3xv72pqoxQDRHE-5" value=":Portal" style="shape=umlLifeline;perimeter=lifelinePerimeter;whiteSpace=wrap;html=1;container=0;dropTarget=0;collapsible=0;recursiveResize=0;outlineConnect=0;portConstraint=eastwest;newEdgeStyle={&quot;edgeStyle&quot;:&quot;elbowEdgeStyle&quot;,&quot;elbow&quot;:&quot;vertical&quot;,&quot;curved&quot;:0,&quot;rounded&quot;:0};" parent="1" vertex="1">
          <mxGeometry x="200" y="110" width="100" height="1020" as="geometry" />
        </mxCell>
        <mxCell id="aM9ryv3xv72pqoxQDRHE-6" value="" style="html=1;points=[];perimeter=orthogonalPerimeter;outlineConnect=0;targetShapes=umlLifeline;portConstraint=eastwest;newEdgeStyle={&quot;edgeStyle&quot;:&quot;elbowEdgeStyle&quot;,&quot;elbow&quot;:&quot;vertical&quot;,&quot;curved&quot;:0,&quot;rounded&quot;:0};" parent="aM9ryv3xv72pqoxQDRHE-5" vertex="1">
          <mxGeometry x="45" y="80" width="10" height="870" as="geometry" />
        </mxCell>
        <mxCell id="aM9ryv3xv72pqoxQDRHE-7" value="Adjunto doc. correspondencia" style="html=1;verticalAlign=bottom;endArrow=block;edgeStyle=elbowEdgeStyle;elbow=horizontal;curved=0;rounded=0;" parent="1" source="aM9ryv3xv72pqoxQDRHE-2" target="aM9ryv3xv72pqoxQDRHE-6" edge="1">
          <mxGeometry relative="1" as="geometry">
            <mxPoint x="185" y="200" as="sourcePoint" />
            <Array as="points">
              <mxPoint x="170" y="190" />
            </Array>
          </mxGeometry>
        </mxCell>
        <mxCell id="cqnKcuiXsADHDMvmx2EB-1" value="&lt;div&gt;&lt;br&gt;&lt;/div&gt;" style="shape=umlActor;verticalLabelPosition=bottom;verticalAlign=top;html=1;outlineConnect=0;" vertex="1" parent="1">
          <mxGeometry x="65" y="43" width="30" height="60" as="geometry" />
        </mxCell>
        <mxCell id="cqnKcuiXsADHDMvmx2EB-4" value=":SFTP Consorcio" style="shape=umlLifeline;perimeter=lifelinePerimeter;whiteSpace=wrap;html=1;container=0;dropTarget=0;collapsible=0;recursiveResize=0;outlineConnect=0;portConstraint=eastwest;newEdgeStyle={&quot;edgeStyle&quot;:&quot;elbowEdgeStyle&quot;,&quot;elbow&quot;:&quot;vertical&quot;,&quot;curved&quot;:0,&quot;rounded&quot;:0};" vertex="1" parent="1">
          <mxGeometry x="360" y="110" width="100" height="1020" as="geometry" />
        </mxCell>
        <mxCell id="cqnKcuiXsADHDMvmx2EB-5" value="" style="html=1;points=[];perimeter=orthogonalPerimeter;outlineConnect=0;targetShapes=umlLifeline;portConstraint=eastwest;newEdgeStyle={&quot;edgeStyle&quot;:&quot;elbowEdgeStyle&quot;,&quot;elbow&quot;:&quot;vertical&quot;,&quot;curved&quot;:0,&quot;rounded&quot;:0};" vertex="1" parent="cqnKcuiXsADHDMvmx2EB-4">
          <mxGeometry x="45" y="147" width="10" height="90" as="geometry" />
        </mxCell>
        <mxCell id="cqnKcuiXsADHDMvmx2EB-6" value=":API Correspondencia" style="shape=umlLifeline;perimeter=lifelinePerimeter;whiteSpace=wrap;html=1;container=0;dropTarget=0;collapsible=0;recursiveResize=0;outlineConnect=0;portConstraint=eastwest;newEdgeStyle={&quot;edgeStyle&quot;:&quot;elbowEdgeStyle&quot;,&quot;elbow&quot;:&quot;vertical&quot;,&quot;curved&quot;:0,&quot;rounded&quot;:0};" vertex="1" parent="1">
          <mxGeometry x="660" y="110" width="100" height="1420" as="geometry" />
        </mxCell>
        <mxCell id="cqnKcuiXsADHDMvmx2EB-7" value="" style="html=1;points=[];perimeter=orthogonalPerimeter;outlineConnect=0;targetShapes=umlLifeline;portConstraint=eastwest;newEdgeStyle={&quot;edgeStyle&quot;:&quot;elbowEdgeStyle&quot;,&quot;elbow&quot;:&quot;vertical&quot;,&quot;curved&quot;:0,&quot;rounded&quot;:0};" vertex="1" parent="cqnKcuiXsADHDMvmx2EB-6">
          <mxGeometry x="45" y="470" width="10" height="340" as="geometry" />
        </mxCell>
        <mxCell id="cqnKcuiXsADHDMvmx2EB-8" value=":wsOnbase" style="shape=umlLifeline;perimeter=lifelinePerimeter;whiteSpace=wrap;html=1;container=0;dropTarget=0;collapsible=0;recursiveResize=0;outlineConnect=0;portConstraint=eastwest;newEdgeStyle={&quot;edgeStyle&quot;:&quot;elbowEdgeStyle&quot;,&quot;elbow&quot;:&quot;vertical&quot;,&quot;curved&quot;:0,&quot;rounded&quot;:0};" vertex="1" parent="1">
          <mxGeometry x="810" y="110" width="100" height="930" as="geometry" />
        </mxCell>
        <mxCell id="cqnKcuiXsADHDMvmx2EB-9" value="" style="html=1;points=[];perimeter=orthogonalPerimeter;outlineConnect=0;targetShapes=umlLifeline;portConstraint=eastwest;newEdgeStyle={&quot;edgeStyle&quot;:&quot;elbowEdgeStyle&quot;,&quot;elbow&quot;:&quot;vertical&quot;,&quot;curved&quot;:0,&quot;rounded&quot;:0};" vertex="1" parent="cqnKcuiXsADHDMvmx2EB-8">
          <mxGeometry x="46" y="680" width="10" height="70" as="geometry" />
        </mxCell>
        <mxCell id="cqnKcuiXsADHDMvmx2EB-10" value=":ECM" style="shape=umlLifeline;perimeter=lifelinePerimeter;whiteSpace=wrap;html=1;container=0;dropTarget=0;collapsible=0;recursiveResize=0;outlineConnect=0;portConstraint=eastwest;newEdgeStyle={&quot;edgeStyle&quot;:&quot;elbowEdgeStyle&quot;,&quot;elbow&quot;:&quot;vertical&quot;,&quot;curved&quot;:0,&quot;rounded&quot;:0};" vertex="1" parent="1">
          <mxGeometry x="1030" y="110" width="100" height="960" as="geometry" />
        </mxCell>
        <mxCell id="cqnKcuiXsADHDMvmx2EB-11" value="" style="html=1;points=[];perimeter=orthogonalPerimeter;outlineConnect=0;targetShapes=umlLifeline;portConstraint=eastwest;newEdgeStyle={&quot;edgeStyle&quot;:&quot;elbowEdgeStyle&quot;,&quot;elbow&quot;:&quot;vertical&quot;,&quot;curved&quot;:0,&quot;rounded&quot;:0};" vertex="1" parent="cqnKcuiXsADHDMvmx2EB-10">
          <mxGeometry x="45" y="750" width="10" height="60" as="geometry" />
        </mxCell>
        <mxCell id="cqnKcuiXsADHDMvmx2EB-12" value="carga documento" style="html=1;verticalAlign=bottom;endArrow=block;edgeStyle=elbowEdgeStyle;elbow=horizontal;curved=0;rounded=0;" edge="1" parent="1" source="aM9ryv3xv72pqoxQDRHE-6" target="cqnKcuiXsADHDMvmx2EB-5">
          <mxGeometry relative="1" as="geometry">
            <mxPoint x="270" y="230" as="sourcePoint" />
            <Array as="points">
              <mxPoint x="320" y="295" />
              <mxPoint x="340" y="230" />
            </Array>
            <mxPoint x="400" y="230" as="targetPoint" />
          </mxGeometry>
        </mxCell>
        <mxCell id="cqnKcuiXsADHDMvmx2EB-14" value="return" style="html=1;verticalAlign=bottom;endArrow=open;dashed=1;endSize=8;edgeStyle=elbowEdgeStyle;elbow=vertical;curved=0;rounded=0;" edge="1" parent="1" target="aM9ryv3xv72pqoxQDRHE-6">
          <mxGeometry relative="1" as="geometry">
            <mxPoint x="265.5" y="330" as="targetPoint" />
            <Array as="points">
              <mxPoint x="350.5" y="330" />
            </Array>
            <mxPoint x="410" y="330" as="sourcePoint" />
          </mxGeometry>
        </mxCell>
        <mxCell id="cqnKcuiXsADHDMvmx2EB-15" value="" style="html=1;verticalAlign=bottom;endArrow=block;edgeStyle=elbowEdgeStyle;elbow=horizontal;curved=0;rounded=0;" edge="1" parent="1" source="aM9ryv3xv72pqoxQDRHE-6" target="cqnKcuiXsADHDMvmx2EB-7">
          <mxGeometry relative="1" as="geometry">
            <mxPoint x="270" y="630" as="sourcePoint" />
            <Array as="points">
              <mxPoint x="360" y="630" />
            </Array>
            <mxPoint x="555" y="630" as="targetPoint" />
          </mxGeometry>
        </mxCell>
        <mxCell id="cqnKcuiXsADHDMvmx2EB-17" value="&lt;div&gt;&lt;br&gt;&lt;/div&gt;&lt;div&gt;Envia datos frm y datos DIP&lt;br&gt;&lt;/div&gt;" style="edgeLabel;html=1;align=center;verticalAlign=middle;resizable=0;points=[];" vertex="1" connectable="0" parent="cqnKcuiXsADHDMvmx2EB-15">
          <mxGeometry x="0.1795" y="2" relative="1" as="geometry">
            <mxPoint x="-17" y="-18" as="offset" />
          </mxGeometry>
        </mxCell>
        <mxCell id="cqnKcuiXsADHDMvmx2EB-16" value="200 - Ok" style="html=1;verticalAlign=bottom;endArrow=open;dashed=1;endSize=8;edgeStyle=elbowEdgeStyle;elbow=vertical;curved=0;rounded=0;" edge="1" parent="1" source="cqnKcuiXsADHDMvmx2EB-7" target="aM9ryv3xv72pqoxQDRHE-5">
          <mxGeometry relative="1" as="geometry">
            <mxPoint x="270" y="670" as="targetPoint" />
            <Array as="points">
              <mxPoint x="455" y="670" />
            </Array>
            <mxPoint x="560" y="670" as="sourcePoint" />
          </mxGeometry>
        </mxCell>
        <mxCell id="cqnKcuiXsADHDMvmx2EB-19" value="alt" style="shape=umlFrame;whiteSpace=wrap;html=1;pointerEvents=0;" vertex="1" parent="1">
          <mxGeometry x="630" y="690" width="900" height="430" as="geometry" />
        </mxCell>
        <mxCell id="cqnKcuiXsADHDMvmx2EB-20" value="" style="line;strokeWidth=1;fillColor=none;align=left;verticalAlign=middle;spacingTop=-1;spacingLeft=3;spacingRight=3;rotatable=0;labelPosition=right;points=[];portConstraint=eastwest;strokeColor=inherit;dashed=1;" vertex="1" parent="1">
          <mxGeometry x="600" y="990" width="40" height="8" as="geometry" />
        </mxCell>
        <mxCell id="cqnKcuiXsADHDMvmx2EB-21" value="" style="html=1;verticalAlign=bottom;endArrow=block;edgeStyle=elbowEdgeStyle;elbow=vertical;curved=0;rounded=0;" edge="1" parent="1" source="cqnKcuiXsADHDMvmx2EB-7" target="cqnKcuiXsADHDMvmx2EB-9">
          <mxGeometry relative="1" as="geometry">
            <mxPoint x="475" y="790" as="sourcePoint" />
            <Array as="points">
              <mxPoint x="720" y="800" />
            </Array>
            <mxPoint x="610" y="790" as="targetPoint" />
          </mxGeometry>
        </mxCell>
        <mxCell id="cqnKcuiXsADHDMvmx2EB-41" value="Radicar()" style="edgeLabel;html=1;align=center;verticalAlign=middle;resizable=0;points=[];" vertex="1" connectable="0" parent="cqnKcuiXsADHDMvmx2EB-21">
          <mxGeometry x="-0.4189" y="-1" relative="1" as="geometry">
            <mxPoint x="33" as="offset" />
          </mxGeometry>
        </mxCell>
        <mxCell id="cqnKcuiXsADHDMvmx2EB-24" value="return Radicado" style="html=1;verticalAlign=bottom;endArrow=open;dashed=1;endSize=8;edgeStyle=elbowEdgeStyle;elbow=vertical;curved=0;rounded=0;exitX=0.026;exitY=0.584;exitDx=0;exitDy=0;exitPerimeter=0;" edge="1" parent="1" source="cqnKcuiXsADHDMvmx2EB-9" target="cqnKcuiXsADHDMvmx2EB-7">
          <mxGeometry relative="1" as="geometry">
            <mxPoint x="720" y="829.9499999999999" as="targetPoint" />
            <Array as="points">
              <mxPoint x="865" y="844.95" />
            </Array>
            <mxPoint x="861" y="829.9499999999999" as="sourcePoint" />
          </mxGeometry>
        </mxCell>
        <mxCell id="cqnKcuiXsADHDMvmx2EB-25" value="" style="html=1;verticalAlign=bottom;endArrow=block;edgeStyle=elbowEdgeStyle;elbow=vertical;curved=0;rounded=0;" edge="1" parent="1" target="cqnKcuiXsADHDMvmx2EB-11">
          <mxGeometry relative="1" as="geometry">
            <mxPoint x="720" y="870" as="sourcePoint" />
            <Array as="points" />
            <mxPoint x="620" y="870" as="targetPoint" />
          </mxGeometry>
        </mxCell>
        <mxCell id="cqnKcuiXsADHDMvmx2EB-26" value="&lt;span style=&quot;line-height: 107%; font-family: Arial, sans-serif;&quot;&gt;&lt;font style=&quot;font-size: 10px;&quot;&gt;UpdateKeyWordDocument()&lt;/font&gt;&lt;/span&gt;&lt;span style=&quot;font-size:12.0pt;mso-bidi-font-size:11.0pt;&lt;br/&gt;line-height:107%;font-family:&amp;quot;Arial&amp;quot;,sans-serif;mso-fareast-font-family:Calibri;&lt;br/&gt;mso-fareast-theme-font:minor-latin;mso-bidi-font-family:&amp;quot;Times New Roman&amp;quot;;&lt;br/&gt;mso-bidi-theme-font:minor-bidi;mso-ansi-language:ES-CO;mso-fareast-language:&lt;br/&gt;EN-US;mso-bidi-language:AR-SA;mso-bidi-font-style:italic&quot;&gt;&amp;nbsp;&lt;/span&gt;" style="edgeLabel;html=1;align=center;verticalAlign=middle;resizable=0;points=[];" vertex="1" connectable="0" parent="cqnKcuiXsADHDMvmx2EB-25">
          <mxGeometry x="-0.1891" y="2" relative="1" as="geometry">
            <mxPoint x="29" y="-3" as="offset" />
          </mxGeometry>
        </mxCell>
        <mxCell id="cqnKcuiXsADHDMvmx2EB-30" value="alt" style="shape=umlFrame;whiteSpace=wrap;html=1;pointerEvents=0;" vertex="1" parent="1">
          <mxGeometry x="190" y="210" width="450" height="340" as="geometry" />
        </mxCell>
        <mxCell id="cqnKcuiXsADHDMvmx2EB-33" value="&lt;font style=&quot;font-size: 10px;&quot;&gt;[Cargue==Consorcio]&lt;/font&gt;" style="text;html=1;align=center;verticalAlign=middle;resizable=0;points=[];autosize=1;strokeColor=none;fillColor=none;" vertex="1" parent="1">
          <mxGeometry x="190" y="238" width="120" height="30" as="geometry" />
        </mxCell>
        <mxCell id="cqnKcuiXsADHDMvmx2EB-34" value="" style="line;strokeWidth=1;fillColor=none;align=left;verticalAlign=middle;spacingTop=-1;spacingLeft=3;spacingRight=3;rotatable=0;labelPosition=right;points=[];portConstraint=eastwest;strokeColor=inherit;dashed=1;" vertex="1" parent="1">
          <mxGeometry x="160" y="350" width="900" height="8" as="geometry" />
        </mxCell>
        <mxCell id="cqnKcuiXsADHDMvmx2EB-35" value="&lt;font style=&quot;font-size: 10px;&quot;&gt;[Else]&lt;/font&gt;" style="text;html=1;align=center;verticalAlign=middle;resizable=0;points=[];autosize=1;strokeColor=none;fillColor=none;" vertex="1" parent="1">
          <mxGeometry x="235" y="358" width="50" height="30" as="geometry" />
        </mxCell>
        <mxCell id="cqnKcuiXsADHDMvmx2EB-36" value=":FTP Caja" style="shape=umlLifeline;perimeter=lifelinePerimeter;whiteSpace=wrap;html=1;container=0;dropTarget=0;collapsible=0;recursiveResize=0;outlineConnect=0;portConstraint=eastwest;newEdgeStyle={&quot;edgeStyle&quot;:&quot;elbowEdgeStyle&quot;,&quot;elbow&quot;:&quot;vertical&quot;,&quot;curved&quot;:0,&quot;rounded&quot;:0};" vertex="1" parent="1">
          <mxGeometry x="500" y="110" width="100" height="1020" as="geometry" />
        </mxCell>
        <mxCell id="cqnKcuiXsADHDMvmx2EB-37" value="" style="html=1;points=[];perimeter=orthogonalPerimeter;outlineConnect=0;targetShapes=umlLifeline;portConstraint=eastwest;newEdgeStyle={&quot;edgeStyle&quot;:&quot;elbowEdgeStyle&quot;,&quot;elbow&quot;:&quot;vertical&quot;,&quot;curved&quot;:0,&quot;rounded&quot;:0};" vertex="1" parent="cqnKcuiXsADHDMvmx2EB-36">
          <mxGeometry x="45" y="290" width="10" height="78" as="geometry" />
        </mxCell>
        <mxCell id="cqnKcuiXsADHDMvmx2EB-39" value="carga documento" style="html=1;verticalAlign=bottom;endArrow=block;edgeStyle=elbowEdgeStyle;elbow=horizontal;curved=0;rounded=0;" edge="1" parent="1" source="aM9ryv3xv72pqoxQDRHE-6" target="cqnKcuiXsADHDMvmx2EB-36">
          <mxGeometry relative="1" as="geometry">
            <mxPoint x="265" y="420" as="sourcePoint" />
            <Array as="points">
              <mxPoint x="330" y="420" />
              <mxPoint x="350" y="355" />
            </Array>
            <mxPoint x="415" y="420" as="targetPoint" />
          </mxGeometry>
        </mxCell>
        <mxCell id="cqnKcuiXsADHDMvmx2EB-40" value="return" style="html=1;verticalAlign=bottom;endArrow=open;dashed=1;endSize=8;edgeStyle=elbowEdgeStyle;elbow=vertical;curved=0;rounded=0;" edge="1" parent="1" source="cqnKcuiXsADHDMvmx2EB-36" target="aM9ryv3xv72pqoxQDRHE-6">
          <mxGeometry relative="1" as="geometry">
            <mxPoint x="317.5" y="450" as="targetPoint" />
            <Array as="points">
              <mxPoint x="413" y="450" />
            </Array>
            <mxPoint x="472.5" y="450" as="sourcePoint" />
          </mxGeometry>
        </mxCell>
        <mxCell id="cqnKcuiXsADHDMvmx2EB-43" value="&lt;font style=&quot;font-size: 10px;&quot;&gt;[Cargue==Consorcio]&lt;/font&gt;" style="text;html=1;align=center;verticalAlign=middle;resizable=0;points=[];autosize=1;strokeColor=none;fillColor=none;" vertex="1" parent="1">
          <mxGeometry x="660" y="730" width="120" height="30" as="geometry" />
        </mxCell>
        <mxCell id="cqnKcuiXsADHDMvmx2EB-44" value="return Radicado" style="html=1;verticalAlign=bottom;endArrow=open;dashed=1;endSize=8;edgeStyle=elbowEdgeStyle;elbow=vertical;curved=0;rounded=0;exitX=0.5;exitY=0.667;exitDx=0;exitDy=0;exitPerimeter=0;" edge="1" parent="1" source="cqnKcuiXsADHDMvmx2EB-11" target="cqnKcuiXsADHDMvmx2EB-7">
          <mxGeometry relative="1" as="geometry">
            <mxPoint x="725" y="904" as="targetPoint" />
            <Array as="points">
              <mxPoint x="875" y="903.95" />
            </Array>
            <mxPoint x="866" y="890" as="sourcePoint" />
          </mxGeometry>
        </mxCell>
      </root>
    </mxGraphModel>
  </diagram>
</mxfile>
